# xmcd
#
# Track frame offsets:
#	150
#	20738
#	23164
#	44001
#	67004
#	73835
#	91165
#	115852
#	142605
#	163819
#	187001
#	221741
#	244359
#	259776
#	281982
#	303433
#
# Disc length: 4126 seconds
#
# Revision: 1
# Processed by: cddbd v1.5.2PL0 Copyright (c) Steve Scherf et al.
# Submitted via: CDmax 2.0
#
DISCID=f8101c10
DTITLE=MENSAGEIROS DO SENHOR DOS EXÉRCITOS - DESTINO INCONTROLÁVEL
DYEAR=2007
DGENRE=Góspel
TTITLE0=SOCORRO
TTITLE1=INTRO - NÃO TEMAS
TTITLE2=NÃO TEMAS
TTITLE3=CÓDIGO PARA A VIDA
TTITLE4=REFLEXÃO
TTITLE5=PROMESSAS
TTITLE6=FAMÍLIA MENSAGEIROS
TTITLE7=DESTINO INCONTROLÁVEL
TTITLE8=A MÃO DE DEUS PESA
TTITLE9=REPRESENTO
TTITLE10=GUERREIROS ATALÁIA
TTITLE11=ESCOLHA
TTITLE12=ROMANOS 8:31
TTITLE13=MARQUE O ENDEREÇO
TTITLE14=MUNDO MELHOR
TTITLE15=FILIPENSES 4:8
EXTD=
EXTT0=
EXTT1=
EXTT2=
EXTT3=
EXTT4=
EXTT5=
EXTT6=
EXTT7=
EXTT8=
EXTT9=
EXTT10=
EXTT11=
EXTT12=
EXTT13=
EXTT14=
EXTT15=
PLAYORDER=
